<?xml version="1.0" encoding="UTF-8"?>
<svg width="475px" height="756px" viewBox="0 0 475 756" version="1.1" xmlns="http://www.w3.org/2000/svg" xmlns:xlink="http://www.w3.org/1999/xlink">
    <!-- Generator: Sketch 47 (45396) - http://www.bohemiancoding.com/sketch -->
    <title>Artboard</title>
    <desc>Created with Sketch.</desc>
    <defs>
        <path d="M138.250567,140.658008 C134.170069,119.4034 131.527659,100.615798 130.323337,84.2952018 C128.997973,66.3342692 130.437149,46.7752519 134.640865,25.6181496 L23.7460998,24.6233195 C26.8930364,41.4611226 27.839189,60.3615321 26.5845578,81.3245481 C25.4424996,100.406636 23.2175624,120.49472 19.9097463,141.5888 C18.0569877,144.099897 17.051224,146.741944 17.051224,149.44272 C17.051224,163.907939 46.7015718,176.167603 80.0111024,176.167603 C113.320633,176.167603 141.128,162.943933 141.128,148.478715 C141.128,145.757752 140.115826,143.130511 138.250567,140.658008 Z" id="path-1"></path>
    </defs>
    <g id="Page-1" stroke="none" stroke-width="1" fill="none" fill-rule="evenodd">
        <g id="Artboard">
            <g id="Head" transform="translate(188.000000, 124.000000)" stroke="#555555" stroke-width="4" fill="#FFFFFF">
                <polygon id="Path-13" transform="translate(83.500000, 133.500000) rotate(-4.000000) translate(-83.500000, -133.500000) " points="61 104.586037 106 178 93.698149 89"></polygon>
                <circle id="Oval-3" cx="62" cy="62" r="62"></circle>
            </g>
            <g id="Frame" transform="translate(12.000000, 227.000000)" stroke="#555555" stroke-width="4">
                <path d="M133.227178,325.540699 C130.702772,324.678235 127.907609,325.325577 126.01936,327.209983 L4.19836894,448.783063 C3.44113435,449.538757 2.86718267,450.457958 2.52059941,451.470064 C1.26813574,455.127554 3.21779541,459.107859 6.87528616,460.360322 L175.876124,518.232624 C183.433511,520.820561 191.804735,518.896676 197.473995,513.268976 L313.711549,397.883538 C314.476439,397.124256 315.055674,396.198609 315.404116,395.178729 C316.653999,391.520356 314.701533,387.541428 311.043159,386.291544 L133.227178,325.540699 Z" id="Rectangle-2"></path>
                <path d="M135.168498,337.729267 L303.486803,395.049202" id="Bottom-frame"></path>
                <path d="M13.0849863,449.019797 C13.1169694,450.257155 13.8114733,451.160312 15.168498,451.729267 L179.982204,507.905553 C184.326843,508.795312 187.646151,508.057194 189.940128,505.691199" id="Bottom-frame"></path>
                <path d="M189.820049,505.838392 C226.207568,469.811503 263.362918,433.072346 301.286098,395.620923 C302.303191,394.616482 303.607296,393.375418 304.319483,392.258069 C304.794275,391.51317 304.950777,390.76048 304.788992,390" id="Bottom-frame"></path>
                <path d="M14.7443622,453.123873 L130.189059,338.182178 C131.643927,337.136868 133.356626,337.00533 135.327155,337.787564" id="Bottom-frame"></path>
                <path d="M80.9353053,479.926114 L78.7609797,391.636451 C78.9389774,386.752084 79.3169674,383.313178 79.8949497,381.319734 C80.472932,379.32629 81.1697687,377.172284 81.9854597,374.857716 L213.531461,1.93570817 C215.641651,0.331127213 217.727958,-0.0873447119 219.790382,0.680292391 C221.852806,1.44792949 223.251514,2.91178593 223.986506,5.07186169 L95.4053751,375.933508 C94.2408434,378.934749 93.4327263,381.508005 92.9810239,383.653277 C92.5293214,385.798549 92.2224736,388.459607 92.0604806,391.636451 L93.7498431,480.987094 C91.0371698,483.455036 88.4804525,484.578159 86.0796911,484.356461 C83.6789297,484.134764 81.9641344,482.657981 80.9353053,479.926114 Z" id="Frame-Handle" fill="#FFFFFF"></path>
            </g>
            <g id="Cup" transform="translate(213.000000, 311.000000)">
                <path d="M190,44 C196.63431,44.3027042 201.363264,46.3809334 204.18686,50.2346876 C208.422255,56.0153189 206.421516,89.7264654 201.949035,105.388928 C198.967381,115.830569 194.984369,125.008612 190,132.923057" id="Cup-handle" stroke="#555555" stroke-width="4"></path>
                <path d="M0.267650988,195.914797 L0.267650988,47.4154179 C1.93417021,34.160508 9.88782928,23.7697279 24.1286282,16.2430778 C45.4898266,4.95310261 65.9029382,0.43619748 98.2572118,0.864557628 C136.245682,1.36751272 163.27039,11.9335743 177.717076,24.4072478 C186.084201,31.6316572 190.267763,40.3011078 190.267763,50.4155995 L190.267763,197.099924 C189.805041,205.086231 184.93501,213.672471 175.65767,222.858644 C161.741661,236.637904 132.997303,250.405649 92.22294,249.11593 C56.4627789,247.984814 25.5837096,234.452734 13.2093025,224.022423 C4.95969787,217.068883 0.645814019,207.699674 0.267650988,195.914797 Z" id="Cup-body" stroke="#555555" stroke-width="4" fill="#FFFFFF"></path>
                <ellipse id="Cup-hole" stroke="#555555" stroke-width="4" fill="#FFFFFF" cx="95" cy="50" rx="84" ry="39"></ellipse>
                <path d="M5.91919136,42 L186.519641,42 C173.769342,18.4995899 143.669267,6.08828306 96.2194161,4.76607938 C48.7695655,3.4438757 18.6694906,15.8551826 5.91919136,42 Z" id="Path-4" fill="#FFFFFF"></path>
            </g>
            <g id="Hat" transform="translate(218.000000, 111.500000) rotate(-23.000000) translate(-218.000000, -111.500000) translate(138.000000, 15.000000)">
                <ellipse id="Oval-4" stroke="#555555" stroke-width="4" fill="#FFFFFF" cx="80" cy="153" rx="80" ry="40"></ellipse>
                <g id="Combined-Shape">
                    <use fill="#FFFFFF" fill-rule="evenodd" xlink:href="#path-1"></use>
                    <path stroke="#555555" stroke-width="4" d="M132.218886,27.5965027 L26.1416155,26.64489 C28.9747189,43.0427296 29.7860741,61.3087998 28.5809854,81.4440337 C27.4350011,100.591721 25.2030517,120.743116 21.8856006,141.898639 L21.8097582,142.382289 L21.5190997,142.776227 C19.8742925,145.005481 19.051224,147.241056 19.051224,149.44272 C19.051224,162.219323 47.4351098,174.167603 80.0111024,174.167603 C111.878167,174.167603 139.128,161.630413 139.128,148.478715 C139.128,146.263658 138.303589,144.049193 136.653946,141.862501 L136.374057,141.491493 L136.286435,141.035086 C132.192202,119.708935 129.53922,100.846162 128.32876,84.4423846 C127.039194,66.9665753 128.337867,48.0179255 132.218895,27.5965035 Z"></path>
                </g>
                <path d="M78.9007121,50.2185377 C109.828658,50.2185377 134.15899,37.8842706 134.15899,24.4832436 C134.15899,11.0822166 109.086936,0.218537743 78.1589903,0.218537743 C47.2310443,0.218537743 22.1589903,11.0822166 22.1589903,24.4832436 C22.1589903,37.8842706 47.9727662,50.2185377 78.9007121,50.2185377 Z" id="Oval-4" stroke="#555555" stroke-width="4" fill="#FFFFFF"></path>
            </g>
            <path d="M275.228491,209.316399 C284.417888,206.50805 291.061752,202.097552 295.160084,196.084906" id="Closed-Eye" stroke="#555555" stroke-width="4"></path>
        </g>
    </g>
</svg>